# xmcd
#
# Track frame offsets: 
#        150
#        16760
#        38992
#        56522
#        72887
#        89125
#        103832
#        121910
#        138070
#        155830
#        172822
#        195097
#        209942
#        228597
#
# Disc length: 3275 seconds
#
# Revision: 7
# Processed by: cddbd v1.5.2PL0 Copyright (c) Steve Scherf et al.
# Submitted via: ExactAudioCopy v0.99pb5
#
DISCID=c00cc90e
DTITLE=Various Artist - Ritmo Da Noite Vol 5
DYEAR=1997
DGENRE=Dance
TTITLE0=Alexia - Number One
TTITLE1=Datura - Voo-Doo Believe?
TTITLE2=Nell - Better Life
TTITLE3=Acid Factory - Fantasy
TTITLE4=Dama - Beautiful Ones
TTITLE5=Taleesa - I Wanna Give
TTITLE6=Flip Da Scrip - You To Me
TTITLE7=Blackbox - Native New Yorker
TTITLE8=Debbie Clark - Be Your Baby
TTITLE9=Sect - Get Away
TTITLE10=Elena Becker - Woman
TTITLE11=Koolmatch - I Like It, I Luv It
TTITLE12=Be Positive feat. Pate - Stay (With Me Tonight)
TTITLE13=Karina - Mi Debilidad
EXTD=YEAR: 1997
EXTT0=
EXTT1=
EXTT2=
EXTT3=
EXTT4=
EXTT5=
EXTT6=
EXTT7=
EXTT8=
EXTT9=
EXTT10=
EXTT11=
EXTT12=
EXTT13=
PLAYORDER=
